<svg width="498" height="42" viewBox="0 0 498 42" fill="none" xmlns="http://www.w3.org/2000/svg">
<path d="M439.873 25.884L444.965 30.976" stroke="black" stroke-width="2" stroke-miterlimit="20"/>
<path d="M442.273 20.088C442.273 22.262 441.409 24.3469 439.872 25.8842C438.335 27.4214 436.25 28.285 434.076 28.285C431.902 28.285 429.817 27.4214 428.28 25.8842C426.743 24.3469 425.879 22.262 425.879 20.088C425.879 17.914 426.743 15.8291 428.28 14.2918C429.817 12.7546 431.902 11.891 434.076 11.891C436.25 11.891 438.335 12.7546 439.872 14.2918C441.409 15.8291 442.273 17.914 442.273 20.088Z" stroke="black" stroke-width="2" stroke-miterlimit="20"/>
<g clip-path="url(#clip0_1_9)">
<path d="M397.22 25.13C397.22 26.38 396.857 27.387 396.132 28.072C395.405 28.758 394.398 29.122 393.188 29.122H384.962C383.752 29.122 382.744 28.758 382.018 28.072C381.293 27.347 380.928 26.339 380.928 25.089V16.822C380.928 15.612 384.192 11.702 384.917 10.976C381.412 10.978 379.075 13.316 379.075 16.822V25.088C379.075 26.822 379.639 28.315 380.768 29.403C381.857 30.451 383.308 30.976 384.962 30.976H393.188C394.921 30.976 396.373 30.411 397.421 29.403C398.51 28.355 399.075 26.863 399.075 25.129V16.822C399.075 15.129 398.51 13.677 397.462 12.629C396.414 11.54 394.92 10.976 393.228 10.976H384.92L382.018 13.88C382.704 13.194 383.752 12.831 384.962 12.831H393.268C394.478 12.831 395.486 13.194 396.212 13.921C396.898 14.646 397.3 15.654 397.3 16.823V25.13H397.22ZM394.357 16.943C394.513 16.9476 394.669 16.9207 394.815 16.8641C394.96 16.8074 395.093 16.7221 395.206 16.6131C395.318 16.5042 395.407 16.3738 395.468 16.2297C395.529 16.0857 395.56 15.9309 395.56 15.7745C395.56 15.6181 395.529 15.4633 395.468 15.3193C395.407 15.1752 395.318 15.0448 395.206 14.9359C395.093 14.8269 394.96 14.7416 394.815 14.6849C394.669 14.6283 394.513 14.6014 394.357 14.606C394.053 14.6149 393.764 14.7419 393.553 14.9601C393.341 15.1782 393.222 15.4704 393.222 15.7745C393.222 16.0786 393.341 16.3708 393.553 16.5889C393.764 16.8071 394.053 16.9341 394.357 16.943V16.943ZM389.075 24.283C388.199 24.2791 387.36 23.9294 386.741 23.31C386.122 22.6907 385.772 21.8519 385.768 20.976C385.772 20.1001 386.122 19.2613 386.741 18.642C387.36 18.0226 388.199 17.6729 389.075 17.669C389.951 17.6729 390.79 18.0226 391.409 18.642C392.028 19.2613 392.378 20.1001 392.382 20.976C392.378 21.8517 392.028 22.6903 391.409 23.3094C390.789 23.9285 389.951 24.2781 389.075 24.282V24.283ZM389.075 15.815C386.253 15.815 383.914 18.113 383.914 20.976C383.912 21.6543 384.044 22.3262 384.303 22.9532C384.562 23.5802 384.942 24.1499 385.421 24.6295C385.901 25.1091 386.471 25.4892 387.098 25.7479C387.725 26.0066 388.397 26.1388 389.075 26.137C391.938 26.137 394.235 23.798 394.235 20.977C394.235 18.153 391.897 15.815 389.075 15.815V15.815Z" fill="black"/>
</g>
<path d="M474.518 16.4C474.518 14.9059 475.111 13.473 476.168 12.4165C477.224 11.36 478.657 10.7665 480.151 10.7665C481.646 10.7665 483.078 11.36 484.135 12.4165C485.191 13.473 485.785 14.9059 485.785 16.4" stroke="black" stroke-width="2" stroke-miterlimit="20"/>
<path d="M487.534 31.976H472.769V17.211H487.534V31.976Z" stroke="black" stroke-width="2" stroke-miterlimit="20"/>
<defs>
<clipPath id="clip0_1_9">
<rect width="21" height="20" fill="white" transform="translate(379 11)"/>
</clipPath>
</defs>
</svg>
