<svg width="487" height="147" viewBox="0 0 487 147" fill="none" xmlns="http://www.w3.org/2000/svg">
<g clip-path="url(#clip0_1_173)">
<path d="M119.25 34.2301C116.077 34.2301 113.603 32.9231 112.016 30.5421V33.7621H105.434V1.66309H112.016V14.0641C113.603 11.6841 116.076 10.3761 119.251 10.3761C125.179 10.3761 129.894 15.6981 129.894 22.2791C129.894 28.8611 125.179 34.2291 119.251 34.2291L119.25 34.2301ZM117.757 16.6321C114.536 16.6321 112.016 19.1051 112.016 22.2791C112.016 25.5011 114.536 27.9271 117.756 27.9271C120.932 27.9271 123.499 25.4541 123.499 22.2791C123.499 19.1521 120.932 16.6321 117.757 16.6321V16.6321Z" fill="#FCFCFA"/>
<path d="M153.078 10.8428L140.334 41.3718H133.286L137.533 31.8958L128.711 10.8428H135.806L140.894 24.2398L145.984 10.8428H153.078Z" fill="#FCFCFA"/>
<path d="M102.395 33.7631H95.813V1.66309H102.395V33.7631Z" fill="#FCFCFA"/>
<path d="M93.194 33.763H86.986V30.916C85.632 33.156 83.485 34.23 80.451 34.23C76.39 34.23 73.355 31.196 73.355 27.368C73.355 22.56 77.603 20.038 84.045 20.038H86.985V19.525C86.985 17.471 85.212 15.743 82.598 15.743C80.124 15.743 77.697 17.098 76.436 18.685L72.842 14.857C74.849 12.242 78.77 10.375 82.598 10.375C89.087 10.375 93.194 14.157 93.194 19.665V33.763ZM86.986 24.147H83.718C80.824 24.147 79.097 25.034 79.097 26.761C79.097 28.161 80.217 29.095 81.991 29.095C84.885 29.095 86.986 27.135 86.986 24.847V24.147Z" fill="#FCFCFA"/>
<path d="M71.017 20.7861V33.7631H64.435V21.6261C64.435 18.6391 62.615 16.6781 59.907 16.6781C57.153 16.6781 55.379 18.6391 55.379 21.6261V33.7631H48.797V1.66309H55.379V13.8311C56.826 11.6371 58.973 10.3761 61.589 10.3761C67.469 10.3761 71.017 14.2981 71.017 20.7861V20.7861Z" fill="#FCFCFA"/>
<path d="M46.21 33.4831C45.37 33.9031 44.062 34.1361 42.848 34.1361C37.48 34.1361 33.699 30.7281 33.699 24.8001V1.66309H40.281V10.8431H45.929V17.0981H40.281V24.4731C40.281 26.6211 41.914 27.9741 43.828 27.9741C44.482 27.9741 45.369 27.8351 45.882 27.6481L46.21 33.4831Z" fill="#FCFCFA"/>
<path d="M32.435 13.97C32.4351 14.4421 32.3421 14.9096 32.1615 15.3458C31.9809 15.782 31.7162 16.1783 31.3824 16.5122C31.0486 16.846 30.6523 17.1109 30.2162 17.2916C29.7801 17.4724 29.3126 17.5654 28.8405 17.5655C28.3684 17.5655 27.9009 17.4726 27.4647 17.292C27.0285 17.1114 26.6322 16.8467 26.2983 16.5129C25.9644 16.1791 25.6996 15.7828 25.5188 15.3467C25.3381 14.9105 25.2451 14.4431 25.245 13.971C25.245 13.0175 25.6238 12.1031 26.2979 11.4289C26.9721 10.7547 27.8865 10.376 28.84 10.376C29.7934 10.376 30.7079 10.7547 31.382 11.4289C32.0562 12.1031 32.435 13.0175 32.435 13.971V13.97Z" fill="#CCCC33"/>
</g>
<g clip-path="url(#clip1_1_173)">
<path d="M64.9024 111.469H102.045V72.4688H64.9024V111.469Z" fill="black"/>
<path d="M93.5581 97.3689C93.5581 98.9939 93.1087 100.303 92.211 101.194C91.3109 102.085 90.0642 102.559 88.5661 102.559H78.3815C76.8834 102.559 75.6354 102.085 74.7366 101.194C73.8389 100.251 73.387 98.9406 73.387 97.3156V86.5686C73.387 84.9956 77.4282 79.9125 78.3258 78.9688C73.9863 78.9714 71.0928 82.0108 71.0928 86.5686V97.3144C71.0928 99.5686 71.7911 101.509 73.1889 102.924C74.5372 104.286 76.3337 104.969 78.3815 104.969H88.5661C90.7117 104.969 92.5094 104.234 93.8069 102.924C95.1552 101.561 95.8548 99.6218 95.8548 97.3676V86.5686C95.8548 84.3677 95.1552 82.48 93.8577 81.1177C92.5602 79.702 90.7105 78.9688 88.6156 78.9688H78.3295L74.7366 82.7439C75.5859 81.8521 76.8834 81.3802 78.3815 81.3802H88.6651C90.1632 81.3802 91.4112 81.8521 92.3101 82.7972C93.1594 83.7397 93.6571 85.0501 93.6571 86.5698V97.3689H93.5581ZM90.0134 86.7258C90.207 86.7318 90.3997 86.6969 90.5802 86.6232C90.7606 86.5496 90.9252 86.4386 91.0641 86.297C91.203 86.1553 91.3134 85.9859 91.3888 85.7986C91.4642 85.6114 91.5031 85.4101 91.5031 85.2068C91.5031 85.0035 91.4642 84.8022 91.3888 84.615C91.3134 84.4277 91.203 84.2583 91.0641 84.1166C90.9252 83.975 90.7606 83.864 90.5802 83.7904C90.3997 83.7167 90.207 83.6818 90.0134 83.6877C89.6371 83.6993 89.2798 83.8644 89.0175 84.148C88.7551 84.4317 88.6084 84.8114 88.6084 85.2068C88.6084 85.6022 88.7551 85.9819 89.0175 86.2656C89.2798 86.5492 89.6371 86.7143 90.0134 86.7258ZM83.4738 96.2678C82.3894 96.2627 81.3508 95.8081 80.584 95.003C79.8172 94.1979 79.3843 93.1074 79.3794 91.9688C79.3843 90.8301 79.8172 89.7396 80.584 88.9345C81.3508 88.1294 82.3894 87.6748 83.4738 87.6697C84.5582 87.6748 85.5968 88.1294 86.3636 88.9345C87.1304 89.7396 87.5633 90.8301 87.5682 91.9688C87.563 93.1071 87.1299 94.1973 86.3631 95.0022C85.5964 95.807 84.558 96.2614 83.4738 96.2665V96.2678ZM83.4738 85.2594C79.9799 85.2594 77.084 88.2469 77.084 91.9688C77.0817 92.8505 77.2454 93.724 77.5657 94.5391C77.886 95.3542 78.3566 96.0948 78.9504 96.7183C79.5442 97.3418 80.2495 97.8359 81.0258 98.1722C81.8021 98.5085 82.634 98.6805 83.4738 98.678C87.0185 98.678 89.8624 95.6374 89.8624 91.97C89.8624 88.2989 86.9677 85.2594 83.4738 85.2594Z" fill="white"/>
</g>
<path d="M41.3331 105V93.1409H46.9339L47.7741 88.5175H41.3352V85.5658C41.3352 84.2291 41.8546 83.3175 44.5568 83.3175H48V79.1805C47.4047 79.1254 45.3611 79 42.9819 79C38.0144 79 34.6156 81.1534 34.6156 85.1085V88.5191H29V93.1409H34.6156V105H41.3331Z" fill="white"/>
<g clip-path="url(#clip2_1_173)">
<path d="M143 82.0769C142.045 82.6019 141.015 82.9517 139.938 83.1079C141.04 82.2956 141.883 81.0084 142.284 79.4774C141.253 80.2272 140.111 80.7771 138.898 81.0708C137.923 79.7959 136.537 79.0024 135.003 79.0024C132.059 79.0024 129.673 81.9394 129.673 85.5636C129.673 86.076 129.718 86.5759 129.81 87.0571C125.377 86.7821 121.448 84.1701 118.818 80.1959C118.361 81.1646 118.097 82.2956 118.097 83.4953C118.097 85.7699 119.036 87.782 120.468 88.9568C119.594 88.9254 118.772 88.6255 118.051 88.1381V88.2193C118.051 91.3999 119.889 94.0556 122.331 94.6555C121.884 94.8055 121.412 94.8867 120.924 94.8867C120.579 94.8867 120.249 94.8429 119.919 94.7679C120.6 97.3736 122.57 99.2733 124.9 99.3295C123.072 101.092 120.777 102.142 118.274 102.142C117.843 102.142 117.421 102.11 117 102.048C119.366 103.916 122.168 104.997 125.179 104.997C134.988 104.997 140.355 94.9928 140.355 86.3195C140.355 86.0321 140.35 85.7509 140.339 85.4697C141.38 84.5513 142.284 83.3953 143 82.0769Z" fill="white"/>
</g>
<defs>
<clipPath id="clip0_1_173">
<rect width="129" height="41" fill="white" transform="translate(25 1)"/>
</clipPath>
<clipPath id="clip1_1_173">
<rect width="26" height="26" fill="white" transform="translate(71 79)"/>
</clipPath>
<clipPath id="clip2_1_173">
<rect width="26" height="26" fill="white" transform="translate(117 79)"/>
</clipPath>
</defs>
</svg>
